<svg width="942" height="185" viewBox="0 0 942 185" fill="none" xmlns="http://www.w3.org/2000/svg">
<path d="M268.49 126.152C264.308 126.152 260.554 125.341 257.226 123.72C253.983 122.013 251.21 119.709 248.906 116.808C246.687 113.907 244.98 110.579 243.786 106.824C242.676 102.984 242.122 98.888 242.122 94.536C242.207 90.184 242.847 86.1307 244.042 82.376C245.236 78.536 246.943 75.208 249.162 72.392C251.466 69.4907 254.239 67.2293 257.482 65.608C260.724 63.9867 264.394 63.176 268.49 63.176C272.415 63.176 276.084 63.9867 279.498 65.608C282.996 67.2293 286.068 69.4907 288.714 72.392C291.444 75.208 293.578 78.536 295.114 82.376C296.65 86.1307 297.418 90.1413 297.418 94.408C297.418 98.8453 296.65 103.027 295.114 106.952C293.578 110.792 291.487 114.163 288.842 117.064C286.196 119.88 283.124 122.099 279.626 123.72C276.127 125.341 272.415 126.152 268.49 126.152ZM266.442 111.176C269.428 111.176 272.116 110.493 274.506 109.128C276.895 107.677 278.772 105.715 280.138 103.24C281.588 100.765 282.314 97.9493 282.314 94.792C282.314 91.5493 281.588 88.6907 280.138 86.216C278.772 83.656 276.895 81.6933 274.506 80.328C272.116 78.8773 269.428 78.152 266.442 78.152C263.54 78.152 260.895 78.8773 258.506 80.328C256.116 81.7787 254.196 83.7413 252.746 86.216C251.38 88.6907 250.698 91.5493 250.698 94.792C250.698 97.9493 251.38 100.765 252.746 103.24C254.196 105.715 256.116 107.677 258.506 109.128C260.895 110.493 263.54 111.176 266.442 111.176ZM242.762 126.28C240.458 126.28 238.751 125.896 237.642 125.128C236.532 124.445 235.85 123.549 235.594 122.44C235.338 121.245 235.21 119.923 235.21 118.472V42.184C235.21 40.7333 235.338 39.4533 235.594 38.344C235.85 37.1493 236.532 36.2107 237.642 35.528C238.751 34.8453 240.458 34.504 242.762 34.504C245.151 34.504 246.858 34.8453 247.882 35.528C248.906 36.2107 249.546 37.1493 249.802 38.344C250.058 39.5387 250.186 40.8187 250.186 42.184V121.032C249.844 122.909 249.119 124.232 248.01 125C246.986 125.853 245.236 126.28 242.762 126.28ZM337.784 127.048C333.688 127.048 329.677 126.28 325.752 124.744C321.912 123.123 318.413 120.861 315.256 117.96C312.184 115.059 309.709 111.645 307.832 107.72C306.04 103.795 305.144 99.4853 305.144 94.792C305.144 90.2693 305.997 86.0453 307.704 82.12C309.41 78.1947 311.757 74.7387 314.744 71.752C317.73 68.7653 321.144 66.4613 324.984 64.84C328.909 63.1333 333.09 62.28 337.528 62.28C343.501 62.28 348.92 63.7307 353.784 66.632C358.648 69.448 362.53 73.288 365.432 78.152C368.333 83.016 369.784 88.52 369.784 94.664C369.784 99.528 368.888 103.965 367.096 107.976C365.304 111.901 362.872 115.315 359.8 118.216C356.728 121.032 353.272 123.208 349.432 124.744C345.677 126.28 341.794 127.048 337.784 127.048ZM337.528 111.944C340.344 111.944 343.032 111.261 345.592 109.896C348.237 108.445 350.37 106.397 351.992 103.752C353.698 101.107 354.552 97.992 354.552 94.408C354.552 91.08 353.784 88.136 352.248 85.576C350.797 83.016 348.792 81.0107 346.232 79.56C343.672 78.1093 340.728 77.384 337.4 77.384C334.242 77.384 331.384 78.152 328.824 79.688C326.264 81.1387 324.216 83.1867 322.68 85.832C321.229 88.392 320.503 91.2933 320.503 94.536C320.503 98.12 321.314 101.235 322.936 103.88C324.557 106.44 326.648 108.445 329.208 109.896C331.853 111.261 334.626 111.944 337.528 111.944Z" fill="black"/>
<path d="M410.308 126.536C406.212 126.536 402.201 125.853 398.276 124.488C394.436 123.037 390.937 120.947 387.78 118.216C384.708 115.485 382.233 112.157 380.356 108.232C378.564 104.221 377.668 99.6987 377.668 94.664C377.668 89.6293 378.564 85.1493 380.356 81.224C382.233 77.2987 384.708 73.9707 387.78 71.24C390.852 68.5093 394.308 66.4187 398.148 64.968C401.988 63.5173 405.956 62.792 410.052 62.792C413.038 62.792 415.854 63.2187 418.5 64.072C421.23 64.9253 423.577 65.9493 425.54 67.144C427.502 68.3387 428.91 69.5333 429.764 70.728C430.873 71.752 431.812 72.7333 432.58 73.672C433.348 74.6107 433.604 75.7627 433.348 77.128C433.092 77.9813 432.708 78.792 432.196 79.56C431.684 80.2427 431.044 80.968 430.276 81.736C428.228 84.04 426.222 84.8933 424.26 84.296C423.15 83.6987 422.041 83.0587 420.932 82.376C419.822 81.6933 418.67 81.0533 417.476 80.456C416.366 79.7733 415.214 79.2187 414.02 78.792C412.825 78.3653 411.502 78.152 410.052 78.152C406.809 78.152 403.908 78.8773 401.348 80.328C398.873 81.6933 396.91 83.6133 395.46 86.088C394.094 88.5627 393.412 91.4213 393.412 94.664C393.412 97.9067 394.094 100.808 395.46 103.368C396.91 105.843 398.873 107.805 401.348 109.256C403.822 110.621 406.638 111.304 409.796 111.304C411.332 111.304 412.782 111.133 414.148 110.792C415.598 110.365 416.878 109.853 417.988 109.256C419.097 108.573 419.993 107.891 420.676 107.208C421.614 106.611 422.468 106.056 423.236 105.544C424.004 105.032 424.814 104.776 425.668 104.776C426.692 104.776 427.673 105.16 428.612 105.928C429.636 106.611 430.745 107.72 431.94 109.256C433.049 110.536 433.646 111.773 433.732 112.968C433.902 114.163 433.646 115.315 432.964 116.424C432.366 117.533 431.342 118.557 429.892 119.496C428.868 120.52 427.332 121.587 425.284 122.696C423.321 123.72 421.017 124.616 418.372 125.384C415.812 126.152 413.124 126.536 410.308 126.536ZM497.199 126.024C494.724 126.024 492.889 125.555 491.695 124.616C490.5 123.677 489.903 122.397 489.903 120.776L490.799 116.552C490.116 117.661 488.964 118.984 487.343 120.52C485.721 121.971 483.588 123.293 480.943 124.488C478.297 125.597 475.097 126.152 471.343 126.152C467.332 126.152 463.535 125.341 459.951 123.72C456.452 122.013 453.337 119.709 450.607 116.808C447.961 113.821 445.828 110.451 444.207 106.696C442.671 102.856 441.903 98.76 441.903 94.408C441.903 90.2267 442.671 86.3013 444.207 82.632C445.828 78.8773 448.004 75.5493 450.735 72.648C453.465 69.7467 456.58 67.4853 460.079 65.864C463.663 64.1573 467.417 63.304 471.343 63.304C474.841 63.304 477.785 63.7733 480.175 64.712C482.649 65.6507 484.74 66.8453 486.447 68.296C488.153 69.6613 489.561 71.112 490.671 72.648L489.903 68.936C489.903 67.0587 490.5 65.6507 491.695 64.712C492.889 63.688 494.767 63.176 497.327 63.176C499.716 63.176 501.423 63.56 502.447 64.328C503.471 65.0107 504.111 65.992 504.367 67.272C504.623 68.4667 504.751 69.832 504.751 71.368V118.216C504.751 119.667 504.623 120.989 504.367 122.184C504.111 123.379 503.428 124.317 502.319 125C501.295 125.683 499.588 126.024 497.199 126.024ZM473.647 111.176C476.548 111.176 479.151 110.451 481.455 109C483.759 107.549 485.593 105.587 486.959 103.112C488.409 100.552 489.135 97.736 489.135 94.664C489.135 91.336 488.409 88.4347 486.959 85.96C485.508 83.4853 483.588 81.5653 481.199 80.2C478.895 78.7493 476.292 78.024 473.391 78.024C470.233 78.024 467.417 78.792 464.943 80.328C462.468 81.7787 460.505 83.784 459.055 86.344C457.689 88.8187 457.007 91.6347 457.007 94.792C457.007 97.864 457.732 100.637 459.183 103.112C460.633 105.587 462.596 107.549 465.071 109C467.631 110.451 470.489 111.176 473.647 111.176Z" fill="#0D0D0D"/>
<path d="M525.146 126.28C522.842 126.28 521.135 125.896 520.026 125.128C519.002 124.445 518.362 123.507 518.106 122.312C517.85 121.117 517.722 119.795 517.722 118.344V70.856C517.722 69.32 517.85 67.9973 518.106 66.888C518.362 65.6933 519.002 64.7973 520.026 64.2C521.135 63.5173 522.884 63.176 525.274 63.176C527.578 63.176 529.242 63.4747 530.266 64.072C531.375 64.6693 532.058 65.4373 532.314 66.376C532.655 67.2293 532.826 68.0827 532.826 68.936L531.802 71.24C532.228 70.5573 532.826 69.7467 533.594 68.808C534.362 67.784 535.386 66.8027 536.666 65.864C537.946 64.84 539.482 64.0293 541.274 63.432C543.066 62.7493 545.199 62.408 547.674 62.408C548.698 62.408 549.764 62.536 550.874 62.792C552.068 62.9627 553.22 63.2613 554.33 63.688C555.524 64.0293 556.591 64.4987 557.53 65.096C558.468 65.6933 559.194 66.4187 559.706 67.272C560.218 68.04 560.474 68.936 560.474 69.96C560.474 72.6907 559.791 74.9947 558.426 76.872C557.06 78.7493 555.439 79.688 553.562 79.688C552.282 79.688 551.343 79.56 550.746 79.304C550.148 79.048 549.636 78.7493 549.21 78.408C548.868 78.0667 548.314 77.768 547.546 77.512C546.863 77.256 545.754 77.128 544.218 77.128C542.938 77.128 541.615 77.3413 540.25 77.768C538.97 78.1947 537.775 78.8347 536.666 79.688C535.556 80.5413 534.66 81.6507 533.978 83.016C533.295 84.296 532.954 85.7893 532.954 87.496V118.6C532.954 120.051 532.826 121.373 532.57 122.568C532.314 123.677 531.631 124.573 530.522 125.256C529.412 125.939 527.62 126.28 525.146 126.28ZM600.198 126.28C596.016 126.28 592.432 125.853 589.446 125C586.459 124.147 584.027 122.824 582.15 121.032C580.272 119.24 578.864 116.936 577.926 114.12C577.072 111.219 576.646 107.805 576.646 103.88V49.608C576.646 48.072 576.774 46.7493 577.03 45.64C577.371 44.5307 578.054 43.6773 579.078 43.08C580.187 42.3973 581.894 42.056 584.198 42.056C586.587 42.056 588.294 42.3973 589.318 43.08C590.427 43.7627 591.11 44.7013 591.366 45.896C591.707 47.0053 591.878 48.2427 591.878 49.608V103.368C591.878 105.16 592.006 106.611 592.262 107.72C592.603 108.829 593.072 109.683 593.67 110.28C594.352 110.792 595.206 111.176 596.229 111.432C597.339 111.603 598.662 111.688 600.198 111.688C601.819 111.688 603.184 111.816 604.294 112.072C605.488 112.328 606.384 112.968 606.982 113.992C607.579 114.931 607.878 116.509 607.878 118.728C607.878 121.117 607.494 122.867 606.726 123.976C606.043 125 605.104 125.64 603.91 125.896C602.8 126.152 601.563 126.28 600.198 126.28ZM571.398 64.456L584.582 64.584L602.246 64.072C603.696 64.072 604.976 64.2427 606.086 64.584C607.28 64.84 608.219 65.5227 608.902 66.632C609.584 67.656 609.926 69.3627 609.926 71.752C609.926 73.9707 609.584 75.6347 608.902 76.744C608.219 77.8533 607.323 78.5787 606.214 78.92C605.104 79.176 603.824 79.304 602.374 79.304L585.222 79.048L571.014 79.176C568.88 79.0907 567.387 78.4933 566.534 77.384C565.766 76.1893 565.382 74.2693 565.382 71.624C565.382 69.1493 565.851 67.3573 566.79 66.248C567.814 65.0533 569.35 64.456 571.398 64.456ZM671.949 126.024C669.474 126.024 667.639 125.555 666.445 124.616C665.25 123.677 664.653 122.397 664.653 120.776L665.549 116.552C664.866 117.661 663.714 118.984 662.093 120.52C660.471 121.971 658.338 123.293 655.693 124.488C653.047 125.597 649.847 126.152 646.093 126.152C642.082 126.152 638.285 125.341 634.701 123.72C631.202 122.013 628.087 119.709 625.357 116.808C622.711 113.821 620.578 110.451 618.957 106.696C617.421 102.856 616.653 98.76 616.653 94.408C616.653 90.2267 617.421 86.3013 618.957 82.632C620.578 78.8773 622.754 75.5493 625.485 72.648C628.215 69.7467 631.33 67.4853 634.829 65.864C638.413 64.1573 642.167 63.304 646.093 63.304C649.591 63.304 652.535 63.7733 654.925 64.712C657.399 65.6507 659.49 66.8453 661.197 68.296C662.903 69.6613 664.311 71.112 665.421 72.648L664.653 68.936C664.653 67.0587 665.25 65.6507 666.445 64.712C667.639 63.688 669.517 63.176 672.077 63.176C674.466 63.176 676.173 63.56 677.197 64.328C678.221 65.0107 678.861 65.992 679.117 67.272C679.373 68.4667 679.501 69.832 679.501 71.368V118.216C679.501 119.667 679.373 120.989 679.117 122.184C678.861 123.379 678.178 124.317 677.069 125C676.045 125.683 674.338 126.024 671.949 126.024ZM648.397 111.176C651.298 111.176 653.901 110.451 656.205 109C658.509 107.549 660.343 105.587 661.709 103.112C663.159 100.552 663.885 97.736 663.885 94.664C663.885 91.336 663.159 88.4347 661.709 85.96C660.258 83.4853 658.338 81.5653 655.949 80.2C653.645 78.7493 651.042 78.024 648.141 78.024C644.983 78.024 642.167 78.792 639.693 80.328C637.218 81.7787 635.255 83.784 633.805 86.344C632.439 88.8187 631.757 91.6347 631.757 94.792C631.757 97.864 632.482 100.637 633.933 103.112C635.383 105.587 637.346 107.549 639.821 109C642.381 110.451 645.239 111.176 648.397 111.176ZM699.384 126.28C696.226 126.28 694.008 125.683 692.728 124.488C691.448 123.208 690.808 120.989 690.808 117.832C690.808 115.613 691.064 113.907 691.576 112.712C692.173 111.432 693.112 110.493 694.392 109.896C695.672 109.299 697.378 109 699.512 109C702.669 109 704.888 109.64 706.168 110.92C707.448 112.2 708.088 114.461 708.088 117.704C708.088 119.837 707.789 121.544 707.192 122.824C706.68 124.104 705.784 125 704.503 125.512C703.309 126.024 701.602 126.28 699.384 126.28Z" fill="black"/>
<path d="M351.573 173V150H354.057V153.519C354.9 152.246 355.996 151.234 357.346 150.483C358.695 149.732 360.182 149.356 361.807 149.356C363.586 149.356 365.204 149.801 366.661 150.69C368.133 151.564 369.275 152.729 370.088 154.186C370.9 152.729 372.035 151.564 373.492 150.69C374.948 149.801 376.566 149.356 378.345 149.356C380.093 149.356 381.687 149.785 383.129 150.644C384.57 151.487 385.712 152.63 386.556 154.071C387.414 155.512 387.844 157.107 387.844 158.855V173H385.36V159.315C385.36 157.981 385.038 156.754 384.394 155.635C383.75 154.5 382.883 153.588 381.795 152.898C380.706 152.208 379.495 151.863 378.161 151.863C376.842 151.863 375.631 152.185 374.527 152.829C373.438 153.458 372.572 154.332 371.927 155.451C371.284 156.57 370.962 157.858 370.962 159.315V173H368.478V159.315C368.478 157.858 368.148 156.57 367.489 155.451C366.845 154.332 365.978 153.458 364.89 152.829C363.801 152.185 362.59 151.863 361.256 151.863C359.937 151.863 358.733 152.208 357.645 152.898C356.556 153.588 355.682 154.5 355.023 155.635C354.379 156.754 354.057 157.981 354.057 159.315V173H351.573ZM402.122 173.598C400.006 173.598 398.074 173.054 396.326 171.965C394.594 170.876 393.206 169.42 392.163 167.595C391.136 165.755 390.622 163.723 390.622 161.5C390.622 159.813 390.921 158.242 391.519 156.785C392.117 155.313 392.938 154.025 393.98 152.921C395.038 151.802 396.265 150.928 397.66 150.299C399.056 149.67 400.543 149.356 402.122 149.356C403.794 149.356 405.335 149.686 406.745 150.345C408.171 150.989 409.398 151.901 410.425 153.082C411.453 154.263 412.242 155.658 412.794 157.268C413.346 158.863 413.599 160.611 413.553 162.512H393.221C393.39 164.153 393.881 165.625 394.693 166.928C395.521 168.216 396.579 169.236 397.867 169.987C399.155 170.723 400.574 171.099 402.122 171.114C403.824 171.114 405.358 170.669 406.722 169.78C408.087 168.875 409.183 167.641 410.011 166.077L412.518 166.652C411.598 168.691 410.211 170.363 408.355 171.666C406.5 172.954 404.422 173.598 402.122 173.598ZM393.152 160.396H411.046C410.954 158.817 410.494 157.368 409.666 156.049C408.854 154.715 407.788 153.649 406.469 152.852C405.151 152.055 403.702 151.656 402.122 151.656C400.543 151.656 399.102 152.047 397.798 152.829C396.495 153.611 395.429 154.669 394.601 156.003C393.789 157.322 393.306 158.786 393.152 160.396ZM437.297 158.855V173H434.813V159.246C434.813 157.881 434.483 156.639 433.824 155.52C433.164 154.401 432.275 153.511 431.156 152.852C430.036 152.193 428.794 151.863 427.43 151.863C426.08 151.863 424.846 152.193 423.727 152.852C422.607 153.511 421.71 154.401 421.036 155.52C420.376 156.639 420.047 157.881 420.047 159.246V173H417.563V150H420.047V153.519C420.875 152.246 421.971 151.234 423.336 150.483C424.7 149.732 426.188 149.356 427.798 149.356C429.561 149.356 431.156 149.785 432.582 150.644C434.023 151.487 435.165 152.63 436.009 154.071C436.867 155.512 437.297 157.107 437.297 158.855ZM440.99 164.099V150H443.474V163.708C443.474 165.073 443.804 166.315 444.463 167.434C445.138 168.553 446.035 169.443 447.154 170.102C448.274 170.761 449.508 171.091 450.857 171.091C452.222 171.091 453.456 170.761 454.56 170.102C455.68 169.443 456.569 168.553 457.228 167.434C457.903 166.315 458.24 165.073 458.24 163.708V150H460.724V173H458.24V169.435C457.412 170.692 456.316 171.704 454.951 172.471C453.602 173.222 452.115 173.598 450.489 173.598C448.741 173.598 447.147 173.176 445.705 172.333C444.264 171.474 443.114 170.324 442.255 168.883C441.412 167.442 440.99 165.847 440.99 164.099ZM450.489 147.447L452.329 140.823H454.813L452.145 147.447H450.489ZM495.754 138.5H498.238V173H495.754V168.262C494.957 169.872 493.822 171.168 492.35 172.149C490.878 173.115 489.123 173.598 487.083 173.598C485.412 173.598 483.848 173.284 482.391 172.655C480.935 172.026 479.647 171.16 478.527 170.056C477.423 168.937 476.557 167.649 475.928 166.192C475.3 164.735 474.985 163.171 474.985 161.5C474.985 159.829 475.3 158.265 475.928 156.808C476.557 155.336 477.423 154.048 478.527 152.944C479.647 151.825 480.935 150.951 482.391 150.322C483.848 149.693 485.412 149.379 487.083 149.379C489.123 149.379 490.878 149.87 492.35 150.851C493.822 151.817 494.957 153.097 495.754 154.692V138.5ZM487.106 171.16C488.87 171.16 490.38 170.731 491.637 169.872C492.91 168.998 493.884 167.825 494.558 166.353C495.233 164.881 495.57 163.263 495.57 161.5C495.57 159.691 495.225 158.058 494.535 156.601C493.861 155.129 492.887 153.964 491.614 153.105C490.357 152.231 488.854 151.794 487.106 151.794C485.343 151.794 483.733 152.231 482.276 153.105C480.835 153.979 479.677 155.152 478.803 156.624C477.945 158.096 477.515 159.721 477.515 161.5C477.515 163.309 477.952 164.942 478.826 166.399C479.716 167.856 480.889 169.013 482.345 169.872C483.802 170.731 485.389 171.16 487.106 171.16ZM503.768 150H506.252V173H503.768V150ZM505.033 145.653C504.603 145.653 504.235 145.515 503.929 145.239C503.637 144.948 503.492 144.587 503.492 144.158C503.492 143.729 503.637 143.376 503.929 143.1C504.235 142.809 504.603 142.663 505.033 142.663C505.447 142.663 505.799 142.809 506.091 143.1C506.397 143.376 506.551 143.729 506.551 144.158C506.551 144.587 506.405 144.948 506.114 145.239C505.822 145.515 505.462 145.653 505.033 145.653ZM530.282 150H532.766V173.966C532.766 175.392 532.452 176.734 531.823 177.991C531.21 179.264 530.374 180.383 529.316 181.349C528.258 182.33 527.054 183.097 525.705 183.649C524.371 184.216 522.991 184.5 521.565 184.5C519.97 184.5 518.429 184.124 516.942 183.373C515.455 182.637 514.167 181.648 513.078 180.406C512.005 179.164 511.261 177.807 510.847 176.335L513.147 175.277C513.423 176.519 513.99 177.646 514.849 178.658C515.708 179.685 516.727 180.498 517.908 181.096C519.104 181.694 520.323 181.993 521.565 181.993C522.669 181.993 523.742 181.778 524.785 181.349C525.828 180.92 526.763 180.329 527.591 179.578C528.419 178.842 529.071 177.991 529.546 177.025C530.037 176.059 530.282 175.039 530.282 173.966V168.331C529.469 169.895 528.342 171.168 526.901 172.149C525.46 173.115 523.781 173.598 521.864 173.598C520.269 173.598 518.767 173.284 517.356 172.655C515.945 172.026 514.711 171.16 513.653 170.056C512.595 168.937 511.759 167.649 511.146 166.192C510.548 164.735 510.249 163.171 510.249 161.5C510.249 159.829 510.548 158.265 511.146 156.808C511.759 155.336 512.595 154.048 513.653 152.944C514.711 151.825 515.945 150.951 517.356 150.322C518.767 149.693 520.269 149.379 521.864 149.379C523.781 149.379 525.46 149.862 526.901 150.828C528.342 151.779 529.469 153.051 530.282 154.646V150ZM521.887 171.16C523.604 171.16 525.076 170.715 526.303 169.826C527.545 168.937 528.496 167.756 529.155 166.284C529.83 164.812 530.167 163.217 530.167 161.5C530.167 159.737 529.83 158.127 529.155 156.67C528.48 155.198 527.522 154.017 526.28 153.128C525.038 152.239 523.574 151.794 521.887 151.794C520.2 151.794 518.667 152.231 517.287 153.105C515.907 153.979 514.811 155.152 513.998 156.624C513.185 158.096 512.779 159.721 512.779 161.5C512.779 163.294 513.193 164.919 514.021 166.376C514.849 167.833 515.953 168.998 517.333 169.872C518.713 170.731 520.231 171.16 521.887 171.16ZM538.133 150H540.617V173H538.133V150ZM539.398 145.653C538.969 145.653 538.601 145.515 538.294 145.239C538.003 144.948 537.857 144.587 537.857 144.158C537.857 143.729 538.003 143.376 538.294 143.1C538.601 142.809 538.969 142.663 539.398 142.663C539.812 142.663 540.165 142.809 540.456 143.1C540.763 143.376 540.916 143.729 540.916 144.158C540.916 144.587 540.77 144.948 540.479 145.239C540.188 145.515 539.827 145.653 539.398 145.653ZM557.698 152.484H551.879L551.856 173H549.372L549.395 152.484H545.002V150H549.395L549.372 142.778H551.856L551.879 150H557.698V152.484ZM580.522 150H583.006V173H580.522L580.453 168.285C579.671 169.88 578.552 171.168 577.095 172.149C575.654 173.115 573.921 173.598 571.897 173.598C570.226 173.598 568.654 173.284 567.182 172.655C565.725 172.011 564.437 171.137 563.318 170.033C562.199 168.914 561.325 167.626 560.696 166.169C560.067 164.697 559.753 163.118 559.753 161.431C559.753 159.76 560.06 158.196 560.673 156.739C561.302 155.282 562.168 154.002 563.272 152.898C564.376 151.779 565.656 150.912 567.113 150.299C568.57 149.67 570.126 149.356 571.782 149.356C573.821 149.356 575.585 149.854 577.072 150.851C578.575 151.832 579.748 153.12 580.591 154.715L580.522 150ZM571.874 171.16C573.637 171.16 575.148 170.731 576.405 169.872C577.678 168.998 578.651 167.825 579.326 166.353C580.001 164.881 580.338 163.263 580.338 161.5C580.338 159.691 579.993 158.058 579.303 156.601C578.628 155.129 577.655 153.964 576.382 153.105C575.125 152.231 573.622 151.794 571.874 151.794C570.095 151.794 568.478 152.231 567.021 153.105C565.58 153.979 564.43 155.152 563.571 156.624C562.712 158.096 562.283 159.721 562.283 161.5C562.283 163.309 562.72 164.942 563.594 166.399C564.483 167.856 565.656 169.013 567.113 169.872C568.57 170.731 570.157 171.16 571.874 171.16ZM587.951 173V138.5H590.435V173H587.951Z" fill="#636363"/>
</svg>
