<svg width="550" height="198" viewBox="0 0 550 198" fill="none" xmlns="http://www.w3.org/2000/svg">
<rect width="550" height="198" fill="#FCFCFC"/>
<path d="M72.4895 132.652C68.3082 132.652 64.5535 131.841 61.2255 130.22C57.9828 128.513 55.2095 126.209 52.9055 123.308C50.6868 120.407 48.9802 117.079 47.7855 113.324C46.6762 109.484 46.1215 105.388 46.1215 101.036C46.2068 96.684 46.8468 92.6307 48.0415 88.876C49.2362 85.036 50.9428 81.708 53.1615 78.892C55.4655 75.9907 58.2388 73.7293 61.4815 72.108C64.7242 70.4867 68.3935 69.676 72.4895 69.676C76.4148 69.676 80.0842 70.4867 83.4975 72.108C86.9962 73.7293 90.0682 75.9907 92.7135 78.892C95.4442 81.708 97.5775 85.036 99.1135 88.876C100.65 92.6307 101.418 96.6413 101.418 100.908C101.418 105.345 100.65 109.527 99.1135 113.452C97.5775 117.292 95.4868 120.663 92.8415 123.564C90.1962 126.38 87.1242 128.599 83.6255 130.22C80.1268 131.841 76.4148 132.652 72.4895 132.652ZM70.4415 117.676C73.4282 117.676 76.1162 116.993 78.5055 115.628C80.8948 114.177 82.7722 112.215 84.1375 109.74C85.5882 107.265 86.3135 104.449 86.3135 101.292C86.3135 98.0493 85.5882 95.1907 84.1375 92.716C82.7722 90.156 80.8948 88.1933 78.5055 86.828C76.1162 85.3773 73.4282 84.652 70.4415 84.652C67.5402 84.652 64.8948 85.3773 62.5055 86.828C60.1162 88.2787 58.1962 90.2413 56.7455 92.716C55.3802 95.1907 54.6975 98.0493 54.6975 101.292C54.6975 104.449 55.3802 107.265 56.7455 109.74C58.1962 112.215 60.1162 114.177 62.5055 115.628C64.8948 116.993 67.5402 117.676 70.4415 117.676ZM46.7615 132.78C44.4575 132.78 42.7508 132.396 41.6415 131.628C40.5322 130.945 39.8495 130.049 39.5935 128.94C39.3375 127.745 39.2095 126.423 39.2095 124.972V48.684C39.2095 47.2333 39.3375 45.9533 39.5935 44.844C39.8495 43.6493 40.5322 42.7107 41.6415 42.028C42.7508 41.3453 44.4575 41.004 46.7615 41.004C49.1508 41.004 50.8575 41.3453 51.8815 42.028C52.9055 42.7107 53.5455 43.6493 53.8015 44.844C54.0575 46.0387 54.1855 47.3187 54.1855 48.684V127.532C53.8442 129.409 53.1188 130.732 52.0095 131.5C50.9855 132.353 49.2362 132.78 46.7615 132.78ZM141.784 133.548C137.688 133.548 133.677 132.78 129.752 131.244C125.912 129.623 122.413 127.361 119.256 124.46C116.184 121.559 113.709 118.145 111.832 114.22C110.04 110.295 109.144 105.985 109.144 101.292C109.144 96.7693 109.997 92.5453 111.704 88.62C113.41 84.6947 115.757 81.2387 118.744 78.252C121.73 75.2653 125.144 72.9613 128.984 71.34C132.909 69.6333 137.09 68.78 141.528 68.78C147.501 68.78 152.92 70.2307 157.784 73.132C162.648 75.948 166.53 79.788 169.432 84.652C172.333 89.516 173.784 95.02 173.784 101.164C173.784 106.028 172.888 110.465 171.096 114.476C169.304 118.401 166.872 121.815 163.8 124.716C160.728 127.532 157.272 129.708 153.432 131.244C149.677 132.78 145.794 133.548 141.784 133.548ZM141.528 118.444C144.344 118.444 147.032 117.761 149.592 116.396C152.237 114.945 154.37 112.897 155.992 110.252C157.698 107.607 158.552 104.492 158.552 100.908C158.552 97.58 157.784 94.636 156.248 92.076C154.797 89.516 152.792 87.5107 150.232 86.06C147.672 84.6093 144.728 83.884 141.4 83.884C138.242 83.884 135.384 84.652 132.824 86.188C130.264 87.6387 128.216 89.6867 126.68 92.332C125.229 94.892 124.503 97.7933 124.503 101.036C124.503 104.62 125.314 107.735 126.936 110.38C128.557 112.94 130.648 114.945 133.208 116.396C135.853 117.761 138.626 118.444 141.528 118.444Z" fill="#DCD91B"/>
<path d="M214.308 133.036C210.212 133.036 206.201 132.353 202.276 130.988C198.436 129.537 194.937 127.447 191.78 124.716C188.708 121.985 186.233 118.657 184.356 114.732C182.564 110.721 181.668 106.199 181.668 101.164C181.668 96.1293 182.564 91.6493 184.356 87.724C186.233 83.7987 188.708 80.4707 191.78 77.74C194.852 75.0093 198.308 72.9187 202.148 71.468C205.988 70.0173 209.956 69.292 214.052 69.292C217.038 69.292 219.854 69.7187 222.5 70.572C225.23 71.4253 227.577 72.4493 229.54 73.644C231.502 74.8387 232.91 76.0333 233.764 77.228C234.873 78.252 235.812 79.2333 236.58 80.172C237.348 81.1107 237.604 82.2627 237.348 83.628C237.092 84.4813 236.708 85.292 236.196 86.06C235.684 86.7427 235.044 87.468 234.276 88.236C232.228 90.54 230.222 91.3933 228.26 90.796C227.15 90.1987 226.041 89.5587 224.932 88.876C223.822 88.1933 222.67 87.5533 221.476 86.956C220.366 86.2733 219.214 85.7187 218.02 85.292C216.825 84.8653 215.502 84.652 214.052 84.652C210.809 84.652 207.908 85.3773 205.348 86.828C202.873 88.1933 200.91 90.1133 199.46 92.588C198.094 95.0627 197.412 97.9213 197.412 101.164C197.412 104.407 198.094 107.308 199.46 109.868C200.91 112.343 202.873 114.305 205.348 115.756C207.822 117.121 210.638 117.804 213.796 117.804C215.332 117.804 216.782 117.633 218.148 117.292C219.598 116.865 220.878 116.353 221.988 115.756C223.097 115.073 223.993 114.391 224.676 113.708C225.614 113.111 226.468 112.556 227.236 112.044C228.004 111.532 228.814 111.276 229.668 111.276C230.692 111.276 231.673 111.66 232.612 112.428C233.636 113.111 234.745 114.22 235.94 115.756C237.049 117.036 237.646 118.273 237.732 119.468C237.902 120.663 237.646 121.815 236.964 122.924C236.366 124.033 235.342 125.057 233.892 125.996C232.868 127.02 231.332 128.087 229.284 129.196C227.321 130.22 225.017 131.116 222.372 131.884C219.812 132.652 217.124 133.036 214.308 133.036ZM301.199 132.524C298.724 132.524 296.889 132.055 295.695 131.116C294.5 130.177 293.903 128.897 293.903 127.276L294.799 123.052C294.116 124.161 292.964 125.484 291.343 127.02C289.721 128.471 287.588 129.793 284.943 130.988C282.297 132.097 279.097 132.652 275.343 132.652C271.332 132.652 267.535 131.841 263.951 130.22C260.452 128.513 257.337 126.209 254.607 123.308C251.961 120.321 249.828 116.951 248.207 113.196C246.671 109.356 245.903 105.26 245.903 100.908C245.903 96.7267 246.671 92.8013 248.207 89.132C249.828 85.3773 252.004 82.0493 254.735 79.148C257.465 76.2467 260.58 73.9853 264.079 72.364C267.663 70.6573 271.417 69.804 275.343 69.804C278.841 69.804 281.785 70.2733 284.175 71.212C286.649 72.1507 288.74 73.3453 290.447 74.796C292.153 76.1613 293.561 77.612 294.671 79.148L293.903 75.436C293.903 73.5587 294.5 72.1507 295.695 71.212C296.889 70.188 298.767 69.676 301.327 69.676C303.716 69.676 305.423 70.06 306.447 70.828C307.471 71.5107 308.111 72.492 308.367 73.772C308.623 74.9667 308.751 76.332 308.751 77.868V124.716C308.751 126.167 308.623 127.489 308.367 128.684C308.111 129.879 307.428 130.817 306.319 131.5C305.295 132.183 303.588 132.524 301.199 132.524ZM277.647 117.676C280.548 117.676 283.151 116.951 285.455 115.5C287.759 114.049 289.593 112.087 290.959 109.612C292.409 107.052 293.135 104.236 293.135 101.164C293.135 97.836 292.409 94.9347 290.959 92.46C289.508 89.9853 287.588 88.0653 285.199 86.7C282.895 85.2493 280.292 84.524 277.391 84.524C274.233 84.524 271.417 85.292 268.943 86.828C266.468 88.2787 264.505 90.284 263.055 92.844C261.689 95.3187 261.007 98.1347 261.007 101.292C261.007 104.364 261.732 107.137 263.183 109.612C264.633 112.087 266.596 114.049 269.071 115.5C271.631 116.951 274.489 117.676 277.647 117.676Z" fill="#0D0D0D"/>
<path d="M329.146 132.78C326.842 132.78 325.135 132.396 324.026 131.628C323.002 130.945 322.362 130.007 322.106 128.812C321.85 127.617 321.722 126.295 321.722 124.844V77.356C321.722 75.82 321.85 74.4973 322.106 73.388C322.362 72.1933 323.002 71.2973 324.026 70.7C325.135 70.0173 326.884 69.676 329.274 69.676C331.578 69.676 333.242 69.9747 334.266 70.572C335.375 71.1693 336.058 71.9373 336.314 72.876C336.655 73.7293 336.826 74.5827 336.826 75.436L335.802 77.74C336.228 77.0573 336.826 76.2467 337.594 75.308C338.362 74.284 339.386 73.3027 340.666 72.364C341.946 71.34 343.482 70.5293 345.274 69.932C347.066 69.2493 349.199 68.908 351.674 68.908C352.698 68.908 353.764 69.036 354.874 69.292C356.068 69.4627 357.22 69.7613 358.33 70.188C359.524 70.5293 360.591 70.9987 361.53 71.596C362.468 72.1933 363.194 72.9187 363.706 73.772C364.218 74.54 364.474 75.436 364.474 76.46C364.474 79.1907 363.791 81.4947 362.426 83.372C361.06 85.2493 359.439 86.188 357.562 86.188C356.282 86.188 355.343 86.06 354.746 85.804C354.148 85.548 353.636 85.2493 353.21 84.908C352.868 84.5667 352.314 84.268 351.546 84.012C350.863 83.756 349.754 83.628 348.218 83.628C346.938 83.628 345.615 83.8413 344.25 84.268C342.97 84.6947 341.775 85.3347 340.666 86.188C339.556 87.0413 338.66 88.1507 337.978 89.516C337.295 90.796 336.954 92.2893 336.954 93.996V125.1C336.954 126.551 336.826 127.873 336.57 129.068C336.314 130.177 335.631 131.073 334.522 131.756C333.412 132.439 331.62 132.78 329.146 132.78ZM404.198 132.78C400.016 132.78 396.432 132.353 393.446 131.5C390.459 130.647 388.027 129.324 386.15 127.532C384.272 125.74 382.864 123.436 381.926 120.62C381.072 117.719 380.646 114.305 380.646 110.38V56.108C380.646 54.572 380.774 53.2493 381.03 52.14C381.371 51.0307 382.054 50.1773 383.078 49.58C384.187 48.8973 385.894 48.556 388.198 48.556C390.587 48.556 392.294 48.8973 393.318 49.58C394.427 50.2627 395.11 51.2013 395.366 52.396C395.707 53.5053 395.878 54.7427 395.878 56.108V109.868C395.878 111.66 396.006 113.111 396.262 114.22C396.603 115.329 397.072 116.183 397.67 116.78C398.352 117.292 399.206 117.676 400.229 117.932C401.339 118.103 402.662 118.188 404.198 118.188C405.819 118.188 407.184 118.316 408.294 118.572C409.488 118.828 410.384 119.468 410.982 120.492C411.579 121.431 411.878 123.009 411.878 125.228C411.878 127.617 411.494 129.367 410.726 130.476C410.043 131.5 409.104 132.14 407.91 132.396C406.8 132.652 405.563 132.78 404.198 132.78ZM375.398 70.956L388.582 71.084L406.246 70.572C407.696 70.572 408.976 70.7427 410.086 71.084C411.28 71.34 412.219 72.0227 412.902 73.132C413.584 74.156 413.926 75.8627 413.926 78.252C413.926 80.4707 413.584 82.1347 412.902 83.244C412.219 84.3533 411.323 85.0787 410.214 85.42C409.104 85.676 407.824 85.804 406.374 85.804L389.222 85.548L375.014 85.676C372.88 85.5907 371.387 84.9933 370.534 83.884C369.766 82.6893 369.382 80.7693 369.382 78.124C369.382 75.6493 369.851 73.8573 370.79 72.748C371.814 71.5533 373.35 70.956 375.398 70.956ZM475.949 132.524C473.474 132.524 471.639 132.055 470.445 131.116C469.25 130.177 468.653 128.897 468.653 127.276L469.549 123.052C468.866 124.161 467.714 125.484 466.093 127.02C464.471 128.471 462.338 129.793 459.693 130.988C457.047 132.097 453.847 132.652 450.093 132.652C446.082 132.652 442.285 131.841 438.701 130.22C435.202 128.513 432.087 126.209 429.357 123.308C426.711 120.321 424.578 116.951 422.957 113.196C421.421 109.356 420.653 105.26 420.653 100.908C420.653 96.7267 421.421 92.8013 422.957 89.132C424.578 85.3773 426.754 82.0493 429.485 79.148C432.215 76.2467 435.33 73.9853 438.829 72.364C442.413 70.6573 446.167 69.804 450.093 69.804C453.591 69.804 456.535 70.2733 458.925 71.212C461.399 72.1507 463.49 73.3453 465.197 74.796C466.903 76.1613 468.311 77.612 469.421 79.148L468.653 75.436C468.653 73.5587 469.25 72.1507 470.445 71.212C471.639 70.188 473.517 69.676 476.077 69.676C478.466 69.676 480.173 70.06 481.197 70.828C482.221 71.5107 482.861 72.492 483.117 73.772C483.373 74.9667 483.501 76.332 483.501 77.868V124.716C483.501 126.167 483.373 127.489 483.117 128.684C482.861 129.879 482.178 130.817 481.069 131.5C480.045 132.183 478.338 132.524 475.949 132.524ZM452.397 117.676C455.298 117.676 457.901 116.951 460.205 115.5C462.509 114.049 464.343 112.087 465.709 109.612C467.159 107.052 467.885 104.236 467.885 101.164C467.885 97.836 467.159 94.9347 465.709 92.46C464.258 89.9853 462.338 88.0653 459.949 86.7C457.645 85.2493 455.042 84.524 452.141 84.524C448.983 84.524 446.167 85.292 443.693 86.828C441.218 88.2787 439.255 90.284 437.805 92.844C436.439 95.3187 435.757 98.1347 435.757 101.292C435.757 104.364 436.482 107.137 437.933 109.612C439.383 112.087 441.346 114.049 443.821 115.5C446.381 116.951 449.239 117.676 452.397 117.676ZM503.384 132.78C500.226 132.78 498.008 132.183 496.728 130.988C495.448 129.708 494.808 127.489 494.808 124.332C494.808 122.113 495.064 120.407 495.576 119.212C496.173 117.932 497.112 116.993 498.392 116.396C499.672 115.799 501.378 115.5 503.512 115.5C506.669 115.5 508.888 116.14 510.168 117.42C511.448 118.7 512.088 120.961 512.088 124.204C512.088 126.337 511.789 128.044 511.192 129.324C510.68 130.604 509.784 131.5 508.503 132.012C507.309 132.524 505.602 132.78 503.384 132.78Z" fill="black"/>
<path d="M155.573 179.5V156.5H158.057V160.019C158.9 158.746 159.996 157.734 161.346 156.983C162.695 156.232 164.182 155.856 165.807 155.856C167.586 155.856 169.204 156.301 170.661 157.19C172.133 158.064 173.275 159.229 174.088 160.686C174.9 159.229 176.035 158.064 177.492 157.19C178.948 156.301 180.566 155.856 182.345 155.856C184.093 155.856 185.687 156.285 187.129 157.144C188.57 157.987 189.712 159.13 190.556 160.571C191.414 162.012 191.844 163.607 191.844 165.355V179.5H189.36V165.815C189.36 164.481 189.038 163.254 188.394 162.135C187.75 161 186.883 160.088 185.795 159.398C184.706 158.708 183.495 158.363 182.161 158.363C180.842 158.363 179.631 158.685 178.527 159.329C177.438 159.958 176.572 160.832 175.927 161.951C175.284 163.07 174.962 164.358 174.962 165.815V179.5H172.478V165.815C172.478 164.358 172.148 163.07 171.489 161.951C170.845 160.832 169.978 159.958 168.89 159.329C167.801 158.685 166.59 158.363 165.256 158.363C163.937 158.363 162.733 158.708 161.645 159.398C160.556 160.088 159.682 161 159.023 162.135C158.379 163.254 158.057 164.481 158.057 165.815V179.5H155.573ZM206.122 180.098C204.006 180.098 202.074 179.554 200.326 178.465C198.594 177.376 197.206 175.92 196.163 174.095C195.136 172.255 194.622 170.223 194.622 168C194.622 166.313 194.921 164.742 195.519 163.285C196.117 161.813 196.938 160.525 197.98 159.421C199.038 158.302 200.265 157.428 201.66 156.799C203.056 156.17 204.543 155.856 206.122 155.856C207.794 155.856 209.335 156.186 210.745 156.845C212.171 157.489 213.398 158.401 214.425 159.582C215.453 160.763 216.242 162.158 216.794 163.768C217.346 165.363 217.599 167.111 217.553 169.012H197.221C197.39 170.653 197.881 172.125 198.693 173.428C199.521 174.716 200.579 175.736 201.867 176.487C203.155 177.223 204.574 177.599 206.122 177.614C207.824 177.614 209.358 177.169 210.722 176.28C212.087 175.375 213.183 174.141 214.011 172.577L216.518 173.152C215.598 175.191 214.211 176.863 212.355 178.166C210.5 179.454 208.422 180.098 206.122 180.098ZM197.152 166.896H215.046C214.954 165.317 214.494 163.868 213.666 162.549C212.854 161.215 211.788 160.149 210.469 159.352C209.151 158.555 207.702 158.156 206.122 158.156C204.543 158.156 203.102 158.547 201.798 159.329C200.495 160.111 199.429 161.169 198.601 162.503C197.789 163.822 197.306 165.286 197.152 166.896ZM241.297 165.355V179.5H238.813V165.746C238.813 164.381 238.483 163.139 237.824 162.02C237.164 160.901 236.275 160.011 235.156 159.352C234.036 158.693 232.794 158.363 231.43 158.363C230.08 158.363 228.846 158.693 227.727 159.352C226.607 160.011 225.71 160.901 225.036 162.02C224.376 163.139 224.047 164.381 224.047 165.746V179.5H221.563V156.5H224.047V160.019C224.875 158.746 225.971 157.734 227.336 156.983C228.7 156.232 230.188 155.856 231.798 155.856C233.561 155.856 235.156 156.285 236.582 157.144C238.023 157.987 239.165 159.13 240.009 160.571C240.867 162.012 241.297 163.607 241.297 165.355ZM244.99 170.599V156.5H247.474V170.208C247.474 171.573 247.804 172.815 248.463 173.934C249.138 175.053 250.035 175.943 251.154 176.602C252.274 177.261 253.508 177.591 254.857 177.591C256.222 177.591 257.456 177.261 258.56 176.602C259.68 175.943 260.569 175.053 261.228 173.934C261.903 172.815 262.24 171.573 262.24 170.208V156.5H264.724V179.5H262.24V175.935C261.412 177.192 260.316 178.204 258.951 178.971C257.602 179.722 256.115 180.098 254.489 180.098C252.741 180.098 251.147 179.676 249.705 178.833C248.264 177.974 247.114 176.824 246.255 175.383C245.412 173.942 244.99 172.347 244.99 170.599ZM254.489 153.947L256.329 147.323H258.813L256.145 153.947H254.489ZM299.754 145H302.238V179.5H299.754V174.762C298.957 176.372 297.822 177.668 296.35 178.649C294.878 179.615 293.123 180.098 291.083 180.098C289.412 180.098 287.848 179.784 286.391 179.155C284.935 178.526 283.647 177.66 282.527 176.556C281.423 175.437 280.557 174.149 279.928 172.692C279.3 171.235 278.985 169.671 278.985 168C278.985 166.329 279.3 164.765 279.928 163.308C280.557 161.836 281.423 160.548 282.527 159.444C283.647 158.325 284.935 157.451 286.391 156.822C287.848 156.193 289.412 155.879 291.083 155.879C293.123 155.879 294.878 156.37 296.35 157.351C297.822 158.317 298.957 159.597 299.754 161.192V145ZM291.106 177.66C292.87 177.66 294.38 177.231 295.637 176.372C296.91 175.498 297.884 174.325 298.558 172.853C299.233 171.381 299.57 169.763 299.57 168C299.57 166.191 299.225 164.558 298.535 163.101C297.861 161.629 296.887 160.464 295.614 159.605C294.357 158.731 292.854 158.294 291.106 158.294C289.343 158.294 287.733 158.731 286.276 159.605C284.835 160.479 283.677 161.652 282.803 163.124C281.945 164.596 281.515 166.221 281.515 168C281.515 169.809 281.952 171.442 282.826 172.899C283.716 174.356 284.889 175.513 286.345 176.372C287.802 177.231 289.389 177.66 291.106 177.66ZM307.768 156.5H310.252V179.5H307.768V156.5ZM309.033 152.153C308.603 152.153 308.235 152.015 307.929 151.739C307.637 151.448 307.492 151.087 307.492 150.658C307.492 150.229 307.637 149.876 307.929 149.6C308.235 149.309 308.603 149.163 309.033 149.163C309.447 149.163 309.799 149.309 310.091 149.6C310.397 149.876 310.551 150.229 310.551 150.658C310.551 151.087 310.405 151.448 310.114 151.739C309.822 152.015 309.462 152.153 309.033 152.153ZM334.282 156.5H336.766V180.466C336.766 181.892 336.452 183.234 335.823 184.491C335.21 185.764 334.374 186.883 333.316 187.849C332.258 188.83 331.054 189.597 329.705 190.149C328.371 190.716 326.991 191 325.565 191C323.97 191 322.429 190.624 320.942 189.873C319.455 189.137 318.167 188.148 317.078 186.906C316.005 185.664 315.261 184.307 314.847 182.835L317.147 181.777C317.423 183.019 317.99 184.146 318.849 185.158C319.708 186.185 320.727 186.998 321.908 187.596C323.104 188.194 324.323 188.493 325.565 188.493C326.669 188.493 327.742 188.278 328.785 187.849C329.828 187.42 330.763 186.829 331.591 186.078C332.419 185.342 333.071 184.491 333.546 183.525C334.037 182.559 334.282 181.539 334.282 180.466V174.831C333.469 176.395 332.342 177.668 330.901 178.649C329.46 179.615 327.781 180.098 325.864 180.098C324.269 180.098 322.767 179.784 321.356 179.155C319.945 178.526 318.711 177.66 317.653 176.556C316.595 175.437 315.759 174.149 315.146 172.692C314.548 171.235 314.249 169.671 314.249 168C314.249 166.329 314.548 164.765 315.146 163.308C315.759 161.836 316.595 160.548 317.653 159.444C318.711 158.325 319.945 157.451 321.356 156.822C322.767 156.193 324.269 155.879 325.864 155.879C327.781 155.879 329.46 156.362 330.901 157.328C332.342 158.279 333.469 159.551 334.282 161.146V156.5ZM325.887 177.66C327.604 177.66 329.076 177.215 330.303 176.326C331.545 175.437 332.496 174.256 333.155 172.784C333.83 171.312 334.167 169.717 334.167 168C334.167 166.237 333.83 164.627 333.155 163.17C332.48 161.698 331.522 160.517 330.28 159.628C329.038 158.739 327.574 158.294 325.887 158.294C324.2 158.294 322.667 158.731 321.287 159.605C319.907 160.479 318.811 161.652 317.998 163.124C317.185 164.596 316.779 166.221 316.779 168C316.779 169.794 317.193 171.419 318.021 172.876C318.849 174.333 319.953 175.498 321.333 176.372C322.713 177.231 324.231 177.66 325.887 177.66ZM342.133 156.5H344.617V179.5H342.133V156.5ZM343.398 152.153C342.969 152.153 342.601 152.015 342.294 151.739C342.003 151.448 341.857 151.087 341.857 150.658C341.857 150.229 342.003 149.876 342.294 149.6C342.601 149.309 342.969 149.163 343.398 149.163C343.812 149.163 344.165 149.309 344.456 149.6C344.763 149.876 344.916 150.229 344.916 150.658C344.916 151.087 344.77 151.448 344.479 151.739C344.188 152.015 343.827 152.153 343.398 152.153ZM361.698 158.984H355.879L355.856 179.5H353.372L353.395 158.984H349.002V156.5H353.395L353.372 149.278H355.856L355.879 156.5H361.698V158.984ZM384.522 156.5H387.006V179.5H384.522L384.453 174.785C383.671 176.38 382.552 177.668 381.095 178.649C379.654 179.615 377.921 180.098 375.897 180.098C374.226 180.098 372.654 179.784 371.182 179.155C369.725 178.511 368.437 177.637 367.318 176.533C366.199 175.414 365.325 174.126 364.696 172.669C364.067 171.197 363.753 169.618 363.753 167.931C363.753 166.26 364.06 164.696 364.673 163.239C365.302 161.782 366.168 160.502 367.272 159.398C368.376 158.279 369.656 157.412 371.113 156.799C372.57 156.17 374.126 155.856 375.782 155.856C377.821 155.856 379.585 156.354 381.072 157.351C382.575 158.332 383.748 159.62 384.591 161.215L384.522 156.5ZM375.874 177.66C377.637 177.66 379.148 177.231 380.405 176.372C381.678 175.498 382.651 174.325 383.326 172.853C384.001 171.381 384.338 169.763 384.338 168C384.338 166.191 383.993 164.558 383.303 163.101C382.628 161.629 381.655 160.464 380.382 159.605C379.125 158.731 377.622 158.294 375.874 158.294C374.095 158.294 372.478 158.731 371.021 159.605C369.58 160.479 368.43 161.652 367.571 163.124C366.712 164.596 366.283 166.221 366.283 168C366.283 169.809 366.72 171.442 367.594 172.899C368.483 174.356 369.656 175.513 371.113 176.372C372.57 177.231 374.157 177.66 375.874 177.66ZM391.951 179.5V145H394.435V179.5H391.951Z" fill="#636363"/>
</svg>
